<?xml version="1.0" standalone="no"?>
<!DOCTYPE svg PUBLIC "-//W3C//DTD SVG 20010904//EN"
 "http://www.w3.org/TR/2001/REC-SVG-20010904/DTD/svg10.dtd">
<svg version="1.0" xmlns="http://www.w3.org/2000/svg"
 width="320.000000pt" height="140.000000pt" viewBox="0 0 320.000000 140.000000"
 preserveAspectRatio="xMidYMid meet">

<g transform="translate(0.000000,140.000000) scale(0.100000,-0.100000)"
fill="#000000" stroke="none">
<path d="M965 920 c-4 -6 -6 -67 -6 -135 0 -69 -4 -125 -9 -125 -5 0 -20 4
-35 10 -30 12 -65 -3 -106 -44 -40 -40 -44 -79 -13 -137 29 -51 70 -79 121
-79 42 0 127 27 154 49 l22 18 -23 49 c-22 44 -25 66 -28 204 -3 114 -8 161
-19 177 -16 24 -47 31 -58 13z m-20 -345 c37 -36 33 -63 -11 -71 -40 -7 -84 8
-84 29 0 17 45 67 60 67 6 0 22 -11 35 -25z"/>
<path d="M2135 878 c-2 -7 -6 -33 -7 -58 -3 -40 -7 -47 -38 -62 -19 -9 -49
-19 -66 -23 -30 -6 -31 -5 -37 35 -6 50 -31 80 -65 80 l-24 0 4 -137 c3 -117
7 -144 26 -179 21 -41 38 -54 69 -54 12 0 14 8 9 38 -20 112 -23 100 25 121
90 39 85 41 92 -44 6 -87 26 -128 60 -123 22 3 22 6 25 184 2 171 1 182 -19
207 -22 29 -47 35 -54 15z"/>
<path d="M212 855 c-29 -7 -64 -23 -77 -35 -35 -33 -60 -105 -60 -176 0 -50 5
-68 28 -103 31 -47 69 -67 157 -83 44 -9 62 -8 85 3 36 18 40 30 17 58 -14 18
-30 24 -75 26 -32 2 -75 12 -95 22 -46 22 -53 61 -23 127 33 75 124 114 146
64 6 -14 21 -24 38 -26 25 -3 27 -1 27 35 -1 40 -21 72 -57 92 -26 13 -43 13
-111 -4z"/>
<path d="M2335 843 c-41 -9 -74 -25 -79 -40 -8 -20 10 -50 35 -58 26 -9 103 2
147 20 37 16 41 36 12 65 -19 19 -64 25 -115 13z"/>
<path d="M1240 744 c-21 -19 -42 -44 -45 -55 -4 -12 -15 -19 -30 -19 -35 0
-39 -16 -22 -74 9 -28 21 -71 27 -96 7 -26 26 -58 46 -78 34 -34 37 -35 92
-29 109 12 156 42 132 87 -12 23 -44 25 -121 9 -47 -10 -54 -9 -66 7 -7 10
-13 27 -13 39 0 18 9 23 58 32 32 6 75 18 95 27 33 13 37 19 37 51 0 48 -22
89 -63 114 -50 30 -81 27 -127 -15z m107 -70 c-9 -10 -67 -22 -67 -15 0 21 61
46 69 28 1 -4 1 -10 -2 -13z"/>
<path d="M2964 761 c-17 -10 -41 -35 -53 -55 -16 -25 -30 -36 -47 -36 -32 0
-39 -21 -21 -57 8 -15 20 -52 26 -82 25 -116 71 -152 173 -133 74 14 110 36
106 64 -5 36 -30 43 -105 31 -75 -13 -90 -8 -95 36 -3 22 3 25 69 41 39 9 84
25 98 34 24 16 27 23 22 53 -8 46 -30 79 -70 103 -40 25 -64 25 -103 1z m82
-86 c-11 -8 -31 -15 -45 -15 -25 1 -25 1 -7 15 11 8 31 15 45 15 25 -1 25 -1
7 -15z"/>
<path d="M495 678 c-67 -67 -86 -120 -64 -181 11 -34 23 -46 61 -65 43 -22 52
-23 102 -12 58 12 89 38 122 103 36 68 9 147 -59 177 -91 39 -102 38 -162 -22z
m119 -42 c44 -18 50 -30 32 -65 -21 -40 -67 -71 -105 -71 -28 0 -31 3 -31 33
0 32 46 117 63 117 4 0 23 -6 41 -14z"/>
<path d="M1498 716 c-11 -10 -12 -34 -6 -112 17 -217 58 -260 128 -134 42 74
71 93 172 114 56 11 63 15 63 36 0 20 -8 27 -45 38 -58 17 -108 10 -170 -22
-27 -14 -51 -26 -53 -26 -3 0 -7 19 -10 42 -4 27 -14 49 -27 60 -27 22 -34 22
-52 4z"/>
<path d="M2673 638 l-47 -93 -11 50 c-20 84 -52 123 -89 109 -20 -8 -20 -16 0
-112 25 -119 60 -172 114 -172 28 0 33 7 90 120 64 127 69 149 44 174 -33 34
-52 20 -101 -76z"/>
<path d="M2320 664 c-6 -14 -10 -65 -10 -112 0 -95 14 -132 51 -132 28 0 39
38 39 134 0 69 -4 88 -21 110 -26 33 -47 33 -59 0z"/>
</g>
</svg>
