<?xml version="1.0" standalone="no"?>
<!DOCTYPE svg PUBLIC "-//W3C//DTD SVG 20010904//EN"
 "http://www.w3.org/TR/2001/REC-SVG-20010904/DTD/svg10.dtd">
<svg version="1.0" xmlns="http://www.w3.org/2000/svg"
 width="320.000000pt" height="140.000000pt" viewBox="0 0 320.000000 140.000000"
 preserveAspectRatio="xMidYMid meet">

<g transform="translate(0.000000,140.000000) scale(0.100000,-0.100000)"
fill="#000000" stroke="none">
<path d="M430 1173 c-63 -25 -103 -47 -125 -69 -27 -27 -31 -44 -16 -72 25
-48 41 -100 39 -127 -2 -22 2 -32 19 -39 12 -6 26 -20 32 -33 6 -13 16 -23 22
-23 8 0 6 7 -4 18 -10 10 -17 24 -17 30 0 7 -9 12 -19 12 -10 0 -22 7 -25 16
-8 21 11 45 33 42 12 -2 18 10 25 57 5 33 14 63 19 66 5 4 27 10 49 13 33 5
42 3 58 -16 11 -13 19 -18 20 -11 0 7 7 10 17 6 12 -5 15 -2 10 10 -5 14 -3
15 13 5 10 -7 17 -16 14 -20 -3 -4 -1 -15 4 -24 6 -12 9 -8 9 16 0 18 4 35 9
38 15 11 16 42 2 42 -8 0 -20 9 -28 20 -8 11 -20 20 -26 20 -7 0 -14 4 -16 9
-4 12 -97 23 -118 14z"/>
<path d="M465 980 c-17 -7 -15 -9 13 -9 17 -1 32 4 32 9 0 12 -17 12 -45 0z"/>
<path d="M538 983 c7 -3 16 -2 19 1 4 3 -2 6 -13 5 -11 0 -14 -3 -6 -6z"/>
<path d="M555 968 c-11 -7 -36 -11 -56 -9 -21 1 -40 -3 -47 -12 -14 -16 -6
-47 12 -47 6 0 4 -5 -4 -11 -11 -8 -8 -9 15 -4 43 9 73 31 71 52 -2 28 38 23
42 -4 2 -16 -2 -23 -14 -23 -13 0 -14 3 -4 15 9 11 9 15 1 15 -6 0 -14 -13
-17 -30 -4 -16 -10 -27 -15 -24 -5 3 -9 0 -9 -5 0 -21 26 -11 53 20 26 30 27
30 27 8 0 -44 -21 -98 -43 -114 -25 -17 -70 -20 -98 -5 -11 7 -19 7 -19 1 0
-5 17 -15 38 -21 35 -12 62 -34 62 -52 0 -24 -43 -48 -86 -48 -39 0 -51 5 -75
31 -16 17 -29 35 -29 40 0 13 -36 11 -74 -5 -67 -28 -166 -157 -166 -217 0
-18 31 -35 82 -44 l34 -7 -3 -111 c-3 -65 0 -118 6 -127 11 -16 50 -17 320
-12 143 2 143 2 138 25 -3 12 -9 58 -12 103 l-7 80 41 16 40 16 -28 84 c-16
46 -36 98 -44 115 -20 37 -72 83 -96 83 -9 0 -25 6 -35 13 -16 12 -16 14 10
27 37 20 54 67 53 142 -1 35 -4 53 -6 40 -4 -19 -7 -21 -19 -11 -7 6 -11 15
-8 20 7 12 -7 11 -31 -3z m-25 -38 c0 -24 -44 -38 -65 -20 -23 19 -6 40 31 40
27 0 34 -4 34 -20z"/>
<path d="M490 930 c0 -5 5 -10 10 -10 6 0 10 5 10 10 0 6 -4 10 -10 10 -5 0
-10 -4 -10 -10z"/>
<path d="M1518 863 c-1 -21 -2 -65 -2 -98 l-1 -60 -38 3 c-30 3 -43 -2 -67
-26 -44 -45 -37 -105 20 -149 29 -24 134 -10 168 22 11 10 11 20 -2 59 -10 30
-16 83 -16 149 -1 106 -11 137 -44 137 -12 0 -17 -10 -18 -37z m-4 -235 c20
-28 12 -38 -30 -38 -38 0 -54 21 -34 45 18 21 46 18 64 -7z"/>
<path d="M2374 825 c-6 -42 -9 -46 -46 -57 -42 -12 -58 -4 -58 34 0 21 -41 51
-53 39 -5 -5 -8 -56 -5 -113 4 -111 22 -158 59 -158 17 0 19 5 13 53 l-6 54
41 16 c23 10 44 17 46 17 3 0 5 -20 5 -44 0 -54 14 -94 35 -102 9 -4 18 -4 20
-2 3 3 7 65 10 138 5 115 3 135 -11 151 -28 31 -42 23 -50 -26z"/>
<path d="M505 850 c-15 -6 -8 -9 28 -9 26 -1 47 4 47 9 0 12 -47 12 -75 0z"/>
<path d="M965 846 c-38 -8 -54 -18 -72 -44 -33 -50 -40 -115 -17 -171 17 -38
26 -48 64 -63 91 -35 177 -14 135 32 -11 12 -31 20 -52 20 -18 0 -50 7 -70 15
-34 14 -35 17 -30 52 8 46 36 85 70 97 22 8 31 6 47 -12 29 -31 50 -28 50 7 0
33 -25 67 -55 74 -11 3 -42 0 -70 -7z"/>
<path d="M2498 828 c-31 -11 -37 -38 -14 -57 10 -8 31 -10 63 -5 58 8 83 20
83 39 0 32 -74 45 -132 23z"/>
<path d="M392 775 c-24 -28 -27 -35 -12 -35 5 0 16 14 25 30 19 37 15 38 -13
5z"/>
<path d="M1707 750 c-19 -22 -41 -40 -50 -40 -21 0 -21 -9 3 -95 13 -47 27
-77 45 -92 31 -27 45 -28 113 -8 44 13 52 20 52 39 0 31 -21 38 -77 25 -38 -8
-49 -7 -61 5 -18 18 -9 46 16 46 10 0 39 7 65 16 44 15 47 18 47 51 0 45 -45
93 -88 93 -23 0 -39 -10 -65 -40z m93 -29 c0 -10 -24 -21 -43 -21 -7 0 -3 7 7
15 22 17 36 19 36 6z"/>
<path d="M2969 759 c-16 -17 -29 -35 -29 -40 0 -5 -9 -9 -19 -9 -29 0 -34 -16
-16 -49 8 -17 15 -40 15 -53 0 -32 35 -86 65 -100 19 -8 37 -8 76 3 60 16 82
40 58 64 -12 13 -24 13 -69 5 -41 -8 -56 -7 -62 2 -19 31 -8 44 50 56 65 13
82 26 82 60 0 34 -17 60 -50 77 -43 22 -69 18 -101 -16z m91 -38 c0 -10 -24
-21 -43 -21 -7 0 -3 7 7 15 22 17 36 19 36 6z"/>
<path d="M2812 747 c-5 -7 -22 -37 -38 -67 l-28 -55 -13 47 c-14 48 -43 75
-64 62 -16 -9 -4 -94 20 -148 20 -46 52 -72 76 -62 8 3 35 46 60 96 35 71 43
95 35 109 -12 24 -36 33 -48 18z"/>
<path d="M1173 718 c-64 -69 -72 -130 -22 -172 52 -44 130 -29 173 33 45 64
28 129 -40 157 -51 22 -77 17 -111 -18z m102 -42 c17 -12 18 -17 7 -40 -14
-32 -81 -64 -92 -46 -16 26 20 100 49 100 10 0 26 -6 36 -14z"/>
<path d="M1907 743 c-8 -14 10 -190 22 -212 19 -34 44 -25 70 25 30 55 55 73
124 89 62 14 74 37 26 54 -46 16 -80 14 -124 -9 -49 -25 -55 -25 -55 1 0 31
-19 59 -40 59 -10 0 -21 -3 -23 -7z"/>
<path d="M2516 708 c-12 -47 -6 -156 9 -172 34 -34 55 1 55 92 0 78 -48 138
-64 80z"/>
<path d="M115 428 c-8 -71 1 -194 14 -203 7 -4 4 235 -3 260 -2 6 -7 -20 -11
-57z"/>
<path d="M718 425 c-15 -16 16 -205 34 -205 6 0 7 10 4 23 -4 12 -11 56 -17
97 -11 89 -12 93 -21 85z"/>
</g>
</svg>
